<svg height="512pt" viewBox="-24 0 512 512" width="512pt" xmlns="http://www.w3.org/2000/svg"><path d="m404.269531 103.679688c0-26.660157-21.691406-48.351563-48.347656-48.351563-26.660156 0-48.351563 21.691406-48.351563 48.351563 0 26.660156 21.691407 48.351562 48.351563 48.351562 26.65625 0 48.347656-21.691406 48.347656-48.351562zm-48.347656 18.351562c-10.121094 0-18.351563-8.230469-18.351563-18.351562 0-10.109376 8.230469-18.351563 18.351563-18.351563 10.117187 0 18.347656 8.242187 18.347656 18.351563 0 10.121093-8.230469 18.351562-18.347656 18.351562zm0 0"/><path d="m399.671875 345.789062h-335.683594c-18.738281 0-33.988281-15.25-33.988281-34 0-18.738281 15.25-33.988281 33.988281-33.988281h292.3125l70.417969-95.332031c17.332031-23.628906 32.882812-47.4375 32.882812-78.789062 0-56.96875-46.191406-103.351563-103.082031-103.679688h-.621093c-57.160157 0-103.667969 46.511719-103.667969 103.679688 0 31.351562 15.558593 55.160156 32.890625 78.789062l47.898437 65.332031h-269.03125c-35.289062 0-63.988281 28.699219-63.988281 63.988281 0 35.289063 28.699219 64 63.988281 64h335.683594c19.167969 0 34.757813 15.589844 34.757813 34.75 0 19.171876-15.589844 34.761719-34.757813 34.761719h-298.492187c-6.441407-21.222656-26.191407-36.699219-49.480469-36.699219-28.507813 0-51.699219 23.1875-51.699219 51.699219 0 28.507813 23.191406 51.699219 51.699219 51.699219 23.289062 0 43.039062-15.480469 49.480469-36.699219h298.492187c35.707031 0 64.757813-29.050781 64.757813-64.761719 0-35.699218-29.050782-64.75-64.757813-64.75zm-90.363281-181.058593c-14.808594-20.199219-27.078125-38.742188-27.078125-61.050781 0-40.5 32.839843-73.46875 73.289062-73.679688h.402344c40.628906 0 73.679687 33.058594 73.679687 73.679688 0 22.308593-12.261718 40.851562-27.082031 61.050781 0 0-43.660156 59.597656-45.808593 62.578125-.25.351562-.5.691406-.75 1.042968zm-257.609375 317.269531c-11.96875 0-21.699219-9.730469-21.699219-21.699219 0-11.972656 9.730469-21.699219 21.699219-21.699219 11.960937 0 21.699219 9.726563 21.699219 21.699219 0 11.96875-9.738282 21.699219-21.699219 21.699219zm0 0"/></svg>